<svg width="90" height="29" viewBox="0 0 90 29" fill="none" xmlns="http://www.w3.org/2000/svg">
<path d="M25.7997 19.9939C25.6585 19.6531 25.5262 19.2949 25.385 18.9891L24.7321 17.5298L24.7056 17.5036C22.7644 13.3094 20.6909 9.04537 18.4938 4.8512L18.4056 4.67644C18.185 4.26576 17.9644 3.81139 17.735 3.39197C17.4527 2.89391 17.1791 2.3609 16.7291 1.85411C16.2905 1.32384 15.7385 0.896604 15.1128 0.603244C14.4872 0.309885 13.8037 0.157715 13.1115 0.157715C12.4193 0.157715 11.7357 0.309885 11.1101 0.603244C10.4845 0.896604 9.93248 1.32384 9.49384 1.85411C9.07913 2.3609 8.77031 2.89391 8.48795 3.39197C8.26737 3.84634 8.04678 4.29197 7.81737 4.70265L7.72913 4.87741C5.56737 9.07158 3.45854 13.3357 1.51737 17.5298L1.46443 17.5823C1.27031 18.0366 1.0409 18.5085 0.820308 19.0153C0.679131 19.3211 0.537955 19.6531 0.396778 20.0201C0.0156308 20.9811 -0.106082 22.0239 0.0436364 23.0456C0.193354 24.0674 0.609335 25.0328 1.25058 25.8469C1.89183 26.661 2.73621 27.2955 3.70051 27.688C4.6648 28.0805 5.71573 28.2174 6.74972 28.0852C7.74102 27.956 8.69555 27.629 9.5556 27.124C10.7027 26.4861 11.8056 25.5599 13.0409 24.223C14.2762 25.5599 15.4056 26.4861 16.5262 27.1327C17.6038 27.7591 18.8242 28.1048 20.0732 28.1376C21.5197 28.1436 22.9196 27.6311 24.0143 26.6947C25.109 25.7584 25.8246 24.4615 26.0291 23.0434C26.2655 22.0244 26.1855 20.9584 25.7997 19.9852V19.9939ZM13.1291 21.4444C11.6115 19.5221 10.6232 17.757 10.288 16.2454C10.149 15.6852 10.1191 15.104 10.1997 14.5328C10.2615 14.0871 10.4291 13.6939 10.6585 13.3619C11.188 12.6017 12.1144 12.1298 13.1291 12.1298C13.611 12.1153 14.089 12.2194 14.5202 12.4329C14.9514 12.6464 15.3224 12.9626 15.5997 13.3531C15.8291 13.7027 15.9968 14.0871 16.0497 14.5328C16.138 15.0395 16.1027 15.625 15.9615 16.2454C15.6262 17.7308 14.638 19.5133 13.1291 21.4444ZM24.3703 22.7376C24.2701 23.4576 23.9811 24.1389 23.5321 24.7138C23.0831 25.2887 22.4899 25.7371 21.8115 26.0143C21.1409 26.2939 20.3997 26.3726 19.6762 26.2939C18.9703 26.2065 18.2644 25.9794 17.5409 25.5599C16.3396 24.8246 15.2594 23.9111 14.338 22.8512C16.1909 20.5794 17.3115 18.5085 17.735 16.6648C17.938 15.791 17.9644 15.0046 17.8762 14.2794C17.766 13.5919 17.5072 12.9362 17.1174 12.357C16.6723 11.729 16.0783 11.2189 15.3874 10.8715C14.6966 10.5241 13.9302 10.3501 13.1556 10.3648C11.5232 10.3648 10.0674 11.1162 9.18501 12.3483C8.78781 12.926 8.53111 13.587 8.43501 14.2794C8.32031 15.0133 8.34678 15.826 8.57619 16.6648C8.99972 18.5085 10.1468 20.6056 11.9732 22.8687C11.0675 23.9488 9.98475 24.8704 8.77031 25.5949C8.03795 26.0143 7.3409 26.2327 6.63501 26.3201C5.53726 26.4594 4.42838 26.1639 3.54939 25.498C2.6704 24.8321 2.09235 23.8495 1.9409 22.7638C1.85266 22.0648 1.91443 21.3658 2.19678 20.5794C2.28501 20.2997 2.41737 20.0201 2.55854 19.6881C2.75266 19.2337 2.98207 18.7619 3.20266 18.29L3.23795 18.2289C5.14384 14.0609 7.22619 9.80556 9.38795 5.6376L9.47619 5.46285C9.69678 5.04343 9.91737 4.5978 10.1468 4.17838C10.3762 3.73275 10.6232 3.30459 10.9409 2.95508C11.2158 2.63005 11.5594 2.36866 11.9474 2.18931C12.3354 2.00996 12.7583 1.91701 13.1865 1.91701C13.6146 1.91701 14.0376 2.00996 14.4256 2.18931C14.8136 2.36866 15.1571 2.63005 15.4321 2.95508C15.7409 3.30459 15.9968 3.73275 16.2262 4.17838C16.4468 4.5978 16.6674 5.05217 16.8968 5.46285L16.985 5.6376C19.138 9.80556 21.2203 14.0609 23.1615 18.2289L23.188 18.2551C23.4174 18.7094 23.6115 19.2162 23.8321 19.6531C23.9732 19.9939 24.1144 20.2648 24.2027 20.5531C24.3703 21.3395 24.4585 22.0386 24.3703 22.7376ZM36.6527 21.2522C35.9878 21.2618 35.3292 21.1231 34.7259 20.8463C34.1225 20.5694 33.5898 20.1616 33.1674 19.6531C32.218 18.5696 31.7142 17.1725 31.7556 15.7386C31.7411 14.2734 32.2612 12.8523 33.2203 11.7366C33.664 11.2216 34.2162 10.8092 34.8382 10.5284C35.4602 10.2476 36.1368 10.1053 36.8203 10.1114C37.4635 10.094 38.1006 10.2388 38.6717 10.5323C39.2428 10.8257 39.7291 11.2582 40.085 11.7891L40.1732 10.4172H42.7497V20.9726H40.1644L40.0762 19.4347C39.7093 20.0015 39.2021 20.466 38.603 20.7841C38.0038 21.1022 37.3324 21.2633 36.6527 21.2522ZM37.3232 18.7357C37.835 18.7357 38.285 18.5959 38.7085 18.3425C39.0968 18.0628 39.4144 17.6959 39.6615 17.2502C39.8821 16.8046 39.9968 16.2716 39.9968 15.6774C40.0312 15.1613 39.9297 14.6453 39.7024 14.1797C39.475 13.7141 39.1295 13.3149 38.6997 13.0211C38.2867 12.7663 37.8099 12.6312 37.3232 12.6312C36.8366 12.6312 36.3598 12.7663 35.9468 13.0211C35.5585 13.3007 35.2409 13.6677 34.9938 14.1133C34.7605 14.6048 34.6457 15.1432 34.6585 15.6861C34.6241 16.2022 34.7256 16.7183 34.9529 17.1839C35.1803 17.6495 35.5258 18.0487 35.9556 18.3425C36.3703 18.5959 36.8203 18.7357 37.3232 18.7357ZM47.1615 7.56867C47.1615 7.8745 47.1085 8.15411 46.9674 8.38129C46.8262 8.59974 46.6321 8.80071 46.3762 8.94052C46.1203 9.08032 45.8468 9.13275 45.5644 9.13275C45.2821 9.13275 44.9997 9.08032 44.7438 8.94052C44.5018 8.8071 44.2983 8.61459 44.1527 8.38129C44.016 8.13238 43.949 7.85183 43.9585 7.56867C43.9585 7.25411 44.0203 6.9745 44.1527 6.75605C44.2938 6.49392 44.4968 6.33663 44.7438 6.19683C44.9997 6.05702 45.2732 5.99586 45.5644 5.99586C45.8453 5.98945 46.123 6.05532 46.3705 6.18704C46.6179 6.31875 46.8266 6.5118 46.9762 6.74731C47.1046 7.00206 47.1682 7.28403 47.1615 7.56867ZM44.1615 20.9376V10.3997H46.9674V20.9551H44.1527L44.1615 20.9376ZM54.4674 13.1609V13.1959C54.335 13.1347 54.1585 13.1085 54.0262 13.0823C53.8497 13.0473 53.7085 13.0473 53.5409 13.0473C52.7556 13.0473 52.1644 13.2745 51.7762 13.7463C51.3527 14.2269 51.1585 14.8997 51.1585 15.7648V20.9463H48.3438V10.391H50.9291L51.0174 11.99C51.2997 11.4308 51.635 11.0114 52.1115 10.6968C52.5854 10.3912 53.1434 10.2386 53.7085 10.2599C53.9115 10.2599 54.1056 10.2774 54.2732 10.3124C54.3615 10.3386 54.4144 10.3386 54.4674 10.3648V13.1609ZM55.5968 20.9376V6.06576H58.4027V11.7454C58.7997 11.2386 59.2497 10.8454 59.8144 10.5395C60.7084 10.1055 61.724 9.98235 62.6973 10.19C63.6707 10.3977 64.545 10.9241 65.1791 11.6842C66.1306 12.77 66.6346 14.1706 66.5909 15.6075C66.6054 17.0727 66.0853 18.4938 65.1262 19.6094C64.6825 20.1244 64.1303 20.5369 63.5083 20.8177C62.8863 21.0985 62.2097 21.2408 61.5262 21.2347C60.883 21.2521 60.2459 21.1073 59.6748 20.8138C59.1037 20.5203 58.6174 20.0879 58.2615 19.557L58.1732 20.9289L55.5968 20.9551V20.9376ZM61.0233 18.7357C61.5262 18.7357 61.9762 18.5959 62.3997 18.3425C62.788 18.0628 63.1056 17.6959 63.3527 17.2502C63.5821 16.8046 63.688 16.2716 63.688 15.6774C63.688 15.092 63.5821 14.559 63.3527 14.1133C63.1209 13.6836 62.7954 13.3105 62.3997 13.0211C61.9867 12.7663 61.5099 12.6312 61.0233 12.6312C60.5366 12.6312 60.0598 12.7663 59.6468 13.0211C59.2497 13.3007 58.9409 13.6677 58.685 14.1133C58.4517 14.6048 58.3369 15.1432 58.3497 15.6861C58.3153 16.2022 58.4168 16.7183 58.6441 17.1839C58.8715 17.6495 59.2169 18.0487 59.6468 18.3425C60.0615 18.5959 60.5115 18.7357 61.0233 18.7357ZM67.6497 20.9463V10.391H70.235L70.3232 11.7628C70.6481 11.237 71.109 10.8066 71.6581 10.5163C72.2073 10.2259 72.8248 10.0862 73.4468 10.1114C74.158 10.0992 74.8571 10.295 75.4566 10.6742C76.0561 11.0534 76.5294 11.5992 76.8174 12.2434C77.1262 12.9075 77.2938 13.7289 77.2938 14.6463V20.9726H74.4791V15.0133C74.4791 14.2794 74.3115 13.7027 73.9762 13.2745C73.6409 12.8551 73.1821 12.6279 72.5997 12.6279C72.1762 12.6279 71.8056 12.7153 71.4791 12.9075C71.1703 13.1085 70.9144 13.3619 70.7203 13.7201C70.524 14.0823 70.4267 14.4889 70.438 14.8997V20.9463H67.6497ZM78.6968 20.9463V6.05702H81.5115V11.7366C81.8927 11.227 82.3887 10.8124 82.96 10.5257C83.5313 10.2391 84.1622 10.0882 84.8027 10.0852C85.4675 10.0755 86.1261 10.2143 86.7294 10.4911C87.3328 10.7679 87.8655 11.1757 88.2879 11.6842C89.2326 12.7699 89.733 14.1662 89.6909 15.5988C89.7062 17.0641 89.186 18.4854 88.2262 19.6007C87.7825 20.1157 87.2303 20.5281 86.6083 20.8089C85.9863 21.0897 85.3097 21.2321 84.6262 21.226C83.983 21.2434 83.3459 21.0986 82.7748 20.8051C82.2037 20.5116 81.7174 20.0791 81.3615 19.5483L81.2821 20.9201L78.6968 20.9463ZM84.1497 18.7357C84.6615 18.7357 85.1115 18.5959 85.5262 18.3425C85.9232 18.0628 86.2321 17.6959 86.488 17.2502C86.7085 16.8046 86.8232 16.2716 86.8232 15.6774C86.8576 15.1613 86.7562 14.6453 86.5289 14.1797C86.3015 13.7141 85.956 13.3149 85.5262 13.0211C85.1132 12.7663 84.6363 12.6312 84.1497 12.6312C83.6631 12.6312 83.1862 12.7663 82.7732 13.0211C82.385 13.3007 82.0674 13.6677 81.8203 14.1133C81.574 14.6004 81.4585 15.1421 81.485 15.6861C81.4506 16.2022 81.5521 16.7183 81.7794 17.1839C82.0068 17.6495 82.3522 18.0487 82.7821 18.3425C83.1968 18.5959 83.6203 18.7357 84.1497 18.7357Z" fill="#FF385C"/>
</svg>
