<svg width="90" height="29" viewBox="0 0 90 29" fill="none" xmlns="http://www.w3.org/2000/svg">
<g clip-path="url(#clip0_53_4868)">
<path fill-rule="evenodd" clip-rule="evenodd" d="M55.8341 22.0436C50.604 26.0178 43.0234 28.1382 36.4966 28.1382C27.345 28.1382 19.1062 24.6486 12.8732 18.8448C12.3835 18.3884 12.8223 17.7664 13.4099 18.1218C20.1365 22.1567 28.4537 24.584 37.0451 24.584C42.8392 24.584 49.2132 23.3481 55.074 20.7834C55.9594 20.3957 56.6999 21.3812 55.8341 22.0436Z" fill="#FF9900"/>
<path fill-rule="evenodd" clip-rule="evenodd" d="M58.0089 19.479C57.3429 18.5985 53.5899 19.063 51.9053 19.2689C51.3921 19.3336 51.3137 18.8731 51.776 18.5419C54.7651 16.3731 59.67 16.9991 60.242 17.7261C60.814 18.4571 60.0931 23.5259 57.2842 25.9452C56.8532 26.3168 56.4419 26.1189 56.6339 25.6261C57.2646 24.0025 58.6789 20.3635 58.0089 19.479Z" fill="#FF9900"/>
<path fill-rule="evenodd" clip-rule="evenodd" d="M52.022 3.23078V1.12249C52.022 0.803416 52.2571 0.589355 52.5392 0.589355H61.6947C61.9885 0.589355 62.2236 0.807455 62.2236 1.12249V2.92787C62.2197 3.23078 61.9728 3.62659 61.5341 4.25262L56.7898 11.2358C58.5527 11.1914 60.4136 11.462 62.012 12.391C62.3724 12.601 62.4704 12.9079 62.4978 13.2108V15.4605C62.4978 15.7675 62.1687 16.1269 61.824 15.9411C59.0072 14.4185 55.2658 14.2529 52.1513 15.9573C51.834 16.135 51.501 15.7796 51.501 15.4726V13.3361C51.501 12.9927 51.5049 12.4071 51.8379 11.8861L57.3343 3.75987H52.5509C52.2571 3.75987 52.022 3.54581 52.022 3.23078Z" fill="black"/>
<path fill-rule="evenodd" clip-rule="evenodd" d="M18.6248 16.3855H15.8393C15.5729 16.3653 15.3614 16.1593 15.3418 15.8968V1.15894C15.3418 0.864098 15.5808 0.629842 15.8785 0.629842H18.4759C18.7462 0.64195 18.9617 0.856018 18.9813 1.12258V3.04913H19.0322C19.71 1.18721 20.9832 0.318848 22.6991 0.318848C24.4425 0.318848 25.5316 1.18721 26.3151 3.04913C26.9889 1.18721 28.5207 0.318848 30.1622 0.318848C31.3297 0.318848 32.6068 0.815629 33.3865 1.93036C34.2679 3.17029 34.0877 4.97163 34.0877 6.55083L34.0838 15.8524C34.0838 16.1472 33.8448 16.3855 33.5471 16.3855H30.7656C30.4874 16.3653 30.2641 16.1351 30.2641 15.8524V8.04118C30.2641 7.41919 30.3189 5.86826 30.1857 5.27859C29.9781 4.28906 29.3552 4.01038 28.5482 4.01038C27.8743 4.01038 27.1692 4.47485 26.8832 5.218C26.5972 5.96116 26.6246 7.20513 26.6246 8.04118V15.8524C26.6246 16.1472 26.3856 16.3855 26.0879 16.3855H23.3064C23.0243 16.3653 22.8049 16.1351 22.8049 15.8524L22.801 8.04118C22.801 6.39736 23.0635 3.97807 21.0851 3.97807C19.0831 3.97807 19.1615 6.33677 19.1615 8.04118V15.8524C19.1615 16.1472 18.9225 16.3855 18.6248 16.3855" fill="black"/>
<path fill-rule="evenodd" clip-rule="evenodd" d="M70.1061 0.318848C74.2393 0.318848 76.4762 3.97807 76.4762 8.63086C76.4762 13.1261 74.0042 16.6925 70.1061 16.6925C66.0474 16.6925 63.8379 13.0332 63.8379 8.47334C63.8379 3.88518 66.0749 0.318848 70.1061 0.318848ZM70.1296 3.32781C68.0768 3.32781 67.9475 6.21157 67.9475 8.00887C67.9475 9.81021 67.9201 13.6552 70.1061 13.6552C72.2648 13.6552 72.3666 10.5534 72.3666 8.66317C72.3666 7.41919 72.3157 5.93289 71.9513 4.75353C71.6379 3.72766 71.015 3.32781 70.1296 3.32781Z" fill="black"/>
<path fill-rule="evenodd" clip-rule="evenodd" d="M81.8357 16.3855H79.062C78.7839 16.3653 78.5606 16.1351 78.5606 15.8524L78.5566 1.11047C78.5801 0.839862 78.8113 0.629842 79.0934 0.629842H81.6751C81.918 0.64195 82.1178 0.811591 82.1726 1.04181V3.2955H82.2236C83.0032 1.2801 84.0962 0.318848 86.0197 0.318848C87.2695 0.318848 88.4879 0.783319 89.2714 2.05556C90.0001 3.23492 90.0001 5.218 90.0001 6.64372V15.921C89.9687 16.1795 89.7376 16.3855 89.4634 16.3855H86.6701C86.4154 16.3653 86.2039 16.1714 86.1765 15.921V7.91597C86.1765 6.30446 86.3567 3.94576 84.4331 3.94576C83.7553 3.94576 83.1324 4.41427 82.8229 5.12511C82.4312 6.02578 82.3803 6.92241 82.3803 7.91597V15.8524C82.3763 16.1472 82.1334 16.3855 81.8357 16.3855" fill="black"/>
<path fill-rule="evenodd" clip-rule="evenodd" d="M44.7241 9.3455C44.7241 10.4643 44.7515 11.3972 44.203 12.3908C43.7603 13.1986 43.0552 13.6954 42.2755 13.6954C41.206 13.6954 40.5792 12.8553 40.5792 11.6153C40.5792 9.16779 42.7065 8.72351 44.7241 8.72351V9.3455ZM47.533 16.3449C47.3489 16.5145 47.0825 16.5266 46.8749 16.4135C45.9503 15.6219 45.7818 15.2544 45.2765 14.4991C43.7486 16.1066 42.6634 16.5872 40.685 16.5872C38.3383 16.5872 36.5166 15.0969 36.5166 12.1121C36.5166 9.7817 37.7389 8.19442 39.4862 7.41895C40.9984 6.73234 43.11 6.61118 44.7241 6.42135V6.04978C44.7241 5.3672 44.775 4.55943 44.3832 3.96975C44.0463 3.44066 43.396 3.22256 42.8201 3.22256C41.7584 3.22256 40.8143 3.78396 40.5831 4.94716C40.5361 5.20565 40.352 5.4601 40.0973 5.47222L37.3981 5.17334C37.1708 5.12083 36.9162 4.931 36.9828 4.57155C37.6018 1.19505 40.5635 0.177246 43.2119 0.177246C44.5674 0.177246 46.3381 0.548824 47.4077 1.60701C48.7632 2.91157 48.6339 4.65232 48.6339 6.54656V11.0216C48.6339 12.3666 49.1745 12.9563 49.6838 13.6833C49.8601 13.9417 49.8993 14.2527 49.672 14.4466C49.104 14.9353 48.0932 15.8441 47.5369 16.353L47.533 16.3449" fill="black"/>
<path fill-rule="evenodd" clip-rule="evenodd" d="M8.20746 9.3455C8.20746 10.4643 8.23488 11.3972 7.68642 12.3908C7.24372 13.1986 6.54246 13.6954 5.75893 13.6954C4.68942 13.6954 4.06651 12.8553 4.06651 11.6153C4.06651 9.16779 6.19379 8.72351 8.20746 8.72351V9.3455ZM11.0164 16.3449C10.8323 16.5145 10.5659 16.5266 10.3582 16.4135C9.43368 15.6219 9.26914 15.2544 8.75985 14.4991C7.23197 16.1066 6.1507 16.5872 4.16837 16.5872C1.82562 16.5872 0 15.0969 0 12.1121C0 9.7817 1.22622 8.19442 2.96957 7.41895C4.48178 6.73234 6.59339 6.61118 8.20746 6.42135V6.04977C8.20746 5.3672 8.25839 4.55943 7.87054 3.96975C7.52971 3.44066 6.87938 3.22256 6.3074 3.22256C5.24572 3.22256 4.29765 3.78396 4.06651 4.94716C4.0195 5.20565 3.83537 5.4601 3.58464 5.47221L0.88147 5.17334C0.654246 5.12083 0.403516 4.931 0.466199 4.57155C1.0891 1.19505 4.04692 0.177246 6.69525 0.177246C8.05075 0.177246 9.82153 0.548823 10.891 1.60701C12.2465 2.91157 12.1173 4.65232 12.1173 6.54656V11.0216C12.1173 12.3666 12.6579 12.9562 13.1672 13.6833C13.3474 13.9417 13.3866 14.2527 13.1594 14.4466C12.5913 14.9353 11.5806 15.844 11.0242 16.3529L11.0164 16.3449" fill="black"/>
</g>
<defs>
<clipPath id="clip0_53_4868">
<rect width="90" height="27.9612" fill="white" transform="translate(0 0.177246)"/>
</clipPath>
</defs>
</svg>
