<svg width="90" height="28" viewBox="0 0 90 28" fill="none" xmlns="http://www.w3.org/2000/svg">
<g clip-path="url(#clip0_53_4870)">
<path d="M66.9277 26.8496L74.4333 18.5367L66.9277 10.2227H74.8469L78.5643 14.2611L82.144 10.2227H89.7869L82.3169 18.5024L89.8895 26.8496H81.9378L78.254 22.778L74.6051 26.8496H66.9277Z" fill="#FF6600"/>
<path d="M66.9274 6.4955H58.4267V10.2227H66.9274V15.8398H58.4267V20.9957H66.9274V26.8496H52.1787V0.657715H66.9274V6.4955Z" fill="#FF6600"/>
<path d="M45.9571 0.657715V11.3767H45.8887C44.5113 9.81611 42.7903 9.2738 40.7935 9.2738C36.7032 9.2738 33.622 12.0147 32.5405 15.6385C31.3071 11.6456 28.1262 9.19897 23.4094 9.19897C19.5789 9.19897 16.5541 10.8938 14.9756 13.6555V10.223H7.05796V6.49627H15.6983V0.657715H0V26.85H7.05796V15.8398H14.0928C13.8831 16.6487 13.7712 17.5146 13.7712 18.4283C13.7712 23.892 18.0055 27.7256 23.4094 27.7256C27.9536 27.7256 30.9483 25.6227 32.5323 21.7887H26.4839C25.6657 22.9404 25.045 23.2826 23.4094 23.2826C21.5127 23.2826 19.8775 21.6514 19.8775 19.7178H32.1934C32.7275 24.0575 36.1569 27.8 40.8631 27.8C42.8932 27.8 44.7519 26.8157 45.8887 25.1537H45.9571V26.8493H52.1789V0.657715H45.9571ZM20.0739 15.9181C20.4664 14.2545 21.7753 13.1672 23.4094 13.1672C25.2082 13.1672 26.4506 14.221 26.7773 15.9181C26.9151 15.9181 20.0739 15.9181 20.0739 15.9181ZM42.1814 22.8617C39.888 22.8617 38.4629 20.7554 38.4629 18.556C38.4629 16.2051 39.7025 13.9444 42.1814 13.9444C44.7519 13.9444 45.776 16.2051 45.776 18.556C45.7756 20.7854 44.6905 22.8617 42.1814 22.8617Z" fill="#652C8F"/>
</g>
<defs>
<clipPath id="clip0_53_4870">
<rect width="90" height="27" fill="white" transform="translate(0 0.657715)"/>
</clipPath>
</defs>
</svg>
