<svg width="90" height="31" viewBox="0 0 90 31" fill="none" xmlns="http://www.w3.org/2000/svg">
<path d="M38.2995 15.5465C38.2995 19.7545 34.9939 22.8553 30.9373 22.8553C26.8807 22.8553 23.5752 19.7545 23.5752 15.5465C23.5752 11.3089 26.8807 8.23779 30.9373 8.23779C34.9939 8.23779 38.2995 11.3089 38.2995 15.5465ZM35.0767 15.5465C35.0767 12.917 33.1609 11.1178 30.9373 11.1178C28.7138 11.1178 26.798 12.917 26.798 15.5465C26.798 18.1497 28.7138 19.9753 30.9373 19.9753C33.1609 19.9753 35.0767 18.1464 35.0767 15.5465Z" fill="#EA4335"/>
<path d="M54.1823 15.5465C54.1823 19.7545 50.8768 22.8553 46.8201 22.8553C42.7635 22.8553 39.458 19.7545 39.458 15.5465C39.458 11.3122 42.7635 8.23779 46.8201 8.23779C50.8768 8.23779 54.1823 11.3089 54.1823 15.5465ZM50.9595 15.5465C50.9595 12.917 49.0437 11.1178 46.8201 11.1178C44.5966 11.1178 42.6808 12.917 42.6808 15.5465C42.6808 18.1497 44.5966 19.9753 46.8201 19.9753C49.0437 19.9753 50.9595 18.1464 50.9595 15.5465Z" fill="#FBBC05"/>
<path d="M69.4021 8.67935V21.8008C69.4021 27.1983 66.2058 29.4028 62.4271 29.4028C58.8701 29.4028 56.7293 27.0336 55.922 25.096L58.7279 23.9328C59.2275 25.1224 60.4518 26.5261 62.4238 26.5261C64.8426 26.5261 66.3415 25.04 66.3415 22.2424V21.1912H66.229C65.5077 22.0776 64.1179 22.852 62.3643 22.852C58.6948 22.852 55.333 19.6688 55.333 15.5729C55.333 11.4473 58.6948 8.23779 62.3643 8.23779C64.1146 8.23779 65.5043 9.01216 66.229 9.87221H66.3415V8.68264H69.4021V8.67935ZM66.5698 15.5729C66.5698 12.9993 64.8459 11.1178 62.6521 11.1178C60.4286 11.1178 58.5657 12.9993 58.5657 15.5729C58.5657 18.1201 60.4286 19.9753 62.6521 19.9753C64.8459 19.9753 66.5698 18.1201 66.5698 15.5729Z" fill="#4285F4"/>
<path d="M74.4481 0.98877V22.4075H71.3047V0.98877H74.4481Z" fill="#34A853"/>
<path d="M86.6977 17.9524L89.1992 19.6132C88.3918 20.8027 86.4462 22.8523 83.0845 22.8523C78.9154 22.8523 75.8018 19.6428 75.8018 15.5436C75.8018 11.1972 78.9418 8.23486 82.7238 8.23486C86.5323 8.23486 88.3951 11.2533 89.004 12.8844L89.3382 13.7148L79.5275 17.7613C80.2786 19.2276 81.4466 19.9756 83.0845 19.9756C84.7257 19.9756 85.8639 19.1716 86.6977 17.9524ZM78.9981 15.3228L85.5562 12.6109C85.1955 11.6981 84.1102 11.0621 82.833 11.0621C81.1951 11.0621 78.9154 12.5021 78.9981 15.3228Z" fill="#EA4335"/>
<path d="M11.6769 13.6453V10.5445H22.1691C22.2717 11.0849 22.3247 11.7242 22.3247 12.4162C22.3247 14.7426 21.6861 17.6193 19.628 19.6689C17.6261 21.7449 15.0684 22.8521 11.6802 22.8521C5.40002 22.8521 0.119141 17.7577 0.119141 11.5034C0.119141 5.24916 5.40002 0.154785 11.6802 0.154785C15.1544 0.154785 17.6294 1.51241 19.489 3.28192L17.2919 5.46993C15.9585 4.22435 14.1519 3.25556 11.6769 3.25556C7.09083 3.25556 3.50407 6.9363 3.50407 11.5034C3.50407 16.0706 7.09083 19.7513 11.6769 19.7513C14.6515 19.7513 16.3456 18.5617 17.4309 17.4809C18.3111 16.6044 18.8901 15.3522 19.1184 13.642L11.6769 13.6453Z" fill="#4285F4"/>
</svg>
