<svg width="163" height="60" viewBox="0 0 163 60" fill="none" xmlns="http://www.w3.org/2000/svg">
<path d="M26.3926 36.1533C27.6898 36.1701 28.9746 36.4012 30.1943 36.8418L30.7324 37.0518C31.978 37.5728 33.124 38.3064 34.1211 39.2188L34.5391 39.6201C35.4924 40.5828 36.2732 41.7034 36.8486 42.9316L37.083 43.4648C37.6727 44.9026 37.9766 46.4437 37.9766 48C37.9766 49.3617 37.7442 50.7118 37.291 51.9912L37.083 52.5352C36.5669 53.7934 35.8402 54.9511 34.9365 55.958L34.5391 56.3799C33.5856 57.3427 32.4759 58.131 31.2598 58.7119L30.7324 58.9482C29.3552 59.5243 27.8822 59.8265 26.3926 59.8457V36.1533ZM24.6055 24.1504C24.5874 27.1589 24.0301 30.1378 22.959 32.9424L22.7344 33.5098C21.5749 36.3365 19.9089 38.9214 17.8223 41.1348L17.3994 41.5723C15.2571 43.7355 12.739 45.4793 9.97266 46.7178L9.41602 46.959C6.47707 48.1882 3.33037 48.828 0.150391 48.8477V24.1504H24.6055ZM50.8496 35.8496H26.3945C26.4126 32.8411 26.9699 29.8622 28.041 27.0576L28.2656 26.4902C29.4251 23.6635 31.0911 21.0786 33.1777 18.8652L33.6006 18.4277C35.7429 16.2645 38.261 14.5207 41.0273 13.2822L41.584 13.041C44.5229 11.8118 47.6696 11.171 50.8496 11.1514V35.8496ZM24.6074 23.8457C23.3102 23.829 22.0254 23.5988 20.8057 23.1582L20.2676 22.9482C19.022 22.4272 17.876 21.6936 16.8789 20.7812L16.4609 20.3799C15.5076 19.4172 14.7268 18.2966 14.1514 17.0684L13.917 16.5352C13.3273 15.0974 13.0234 13.5563 13.0234 12C13.0234 10.6383 13.2558 9.28817 13.709 8.00879L13.917 7.46484C14.4331 6.20657 15.1598 5.04892 16.0635 4.04199L16.4609 3.62012C17.4144 2.65733 18.5241 1.86904 19.7402 1.28809L20.2676 1.05176C21.6449 0.475688 23.1178 0.172539 24.6074 0.15332V23.8457Z" fill="#1E1E1E" stroke="black" stroke-width="0.3"/>
<path d="M71 41.6783V18.2252H75.7647V27.555H75.9592C76.4346 26.3968 77.1693 25.5389 78.1633 24.9812C79.1573 24.4021 80.2701 24.1126 81.5018 24.1126C82.3662 24.1126 83.1657 24.252 83.9004 24.5308C84.6567 24.7882 85.3049 25.1957 85.8452 25.7534C86.407 26.311 86.8392 27.0509 87.1417 27.9732C87.4658 28.874 87.6279 29.9678 87.6279 31.2547V41.6783H82.8632V32.2842C82.8632 31.319 82.7443 30.5147 82.5066 29.8713C82.2905 29.2279 81.9448 28.756 81.4694 28.4558C80.994 28.134 80.3674 27.9732 79.5894 27.9732C78.7683 27.9732 78.0768 28.1662 77.515 28.5523C76.9532 28.9383 76.521 29.4424 76.2185 30.0643C75.916 30.6863 75.7647 31.3619 75.7647 32.0912V41.6783H71Z" fill="black"/>
<path d="M99.157 42C97.3419 42 95.7969 41.6354 94.522 40.9062C93.2687 40.1769 92.3071 39.1475 91.6372 37.8177C90.9673 36.4879 90.6324 34.9437 90.6324 33.185C90.6324 31.319 90.9673 29.7105 91.6372 28.3593C92.3287 27.008 93.2903 25.9678 94.522 25.2386C95.7753 24.4879 97.2555 24.1126 98.9625 24.1126C100.951 24.1126 102.571 24.5416 103.824 25.3995C105.099 26.2574 106.018 27.437 106.58 28.9383C107.141 30.4397 107.325 32.1555 107.131 34.0858H95.2999C95.2999 35.0295 95.4511 35.8338 95.7537 36.4987C96.0778 37.1421 96.5316 37.6247 97.115 37.9464C97.6984 38.2681 98.3791 38.429 99.157 38.429C100.065 38.429 100.799 38.2466 101.361 37.882C101.923 37.5174 102.301 37.0349 102.496 36.4343H107.001C106.828 37.571 106.385 38.5576 105.672 39.3941C104.959 40.2091 104.041 40.8525 102.917 41.3244C101.815 41.7748 100.562 42 99.157 42ZM95.2999 31.6086L94.8785 31.1582H102.917L102.463 31.6086C102.506 30.7078 102.377 29.9786 102.074 29.4209C101.793 28.8418 101.383 28.4021 100.842 28.1019C100.324 27.8016 99.6972 27.6515 98.9625 27.6515C98.2278 27.6515 97.5796 27.8123 97.0178 28.134C96.4775 28.4343 96.0562 28.8847 95.7537 29.4853C95.4727 30.0643 95.3215 30.7721 95.2999 31.6086Z" fill="black"/>
<path d="M116.694 41.9678C115.635 41.9678 114.674 41.7748 113.809 41.3887C112.945 40.9812 112.2 40.4021 111.573 39.6515C110.946 38.8794 110.46 37.9357 110.114 36.8204C109.79 35.7051 109.628 34.4504 109.628 33.0563C109.628 31.1689 109.92 29.5603 110.503 28.2306C111.108 26.8794 111.94 25.8606 112.999 25.1743C114.058 24.4665 115.29 24.1126 116.694 24.1126C117.58 24.1126 118.38 24.252 119.093 24.5308C119.806 24.7882 120.422 25.1635 120.94 25.6568C121.459 26.1287 121.837 26.6863 122.075 27.3298H122.334L122.529 24.4343H127.034V41.6783H122.529L122.334 38.7507H122.075C121.729 39.7158 121.07 40.4987 120.098 41.0992C119.147 41.6783 118.012 41.9678 116.694 41.9678ZM118.412 38.1394C119.276 38.1394 119.99 37.9571 120.551 37.5925C121.135 37.2279 121.567 36.7239 121.848 36.0804C122.129 35.437 122.269 34.7078 122.269 33.8928V32.1877C122.269 31.3512 122.118 30.622 121.815 30C121.535 29.3566 121.102 28.8525 120.519 28.4879C119.957 28.1233 119.298 27.941 118.542 27.941C117.634 27.941 116.878 28.1448 116.273 28.5523C115.689 28.9598 115.246 29.5496 114.944 30.3217C114.641 31.0724 114.49 31.9839 114.49 33.0563C114.49 34.0858 114.631 34.9866 114.912 35.7587C115.192 36.5308 115.625 37.1206 116.208 37.5282C116.791 37.9357 117.526 38.1394 118.412 38.1394Z" fill="black"/>
<path d="M131.11 41.6783V18.2252H135.874V41.6783H131.11Z" fill="black"/>
<path d="M139.973 41.6783V24.4343H144.737V41.6783H139.973ZM142.339 22.4075C141.604 22.4075 140.999 22.2145 140.524 21.8284C140.048 21.4424 139.811 20.9062 139.811 20.2198C139.811 19.5121 140.048 18.9651 140.524 18.5791C140.999 18.193 141.604 18 142.339 18C143.095 18 143.711 18.193 144.186 18.5791C144.662 18.9651 144.899 19.5121 144.899 20.2198C144.899 20.9062 144.662 21.4424 144.186 21.8284C143.711 22.2145 143.095 22.4075 142.339 22.4075Z" fill="black"/>
<path d="M146.794 41.6783C146.794 39.4633 147.585 37.5704 149.168 35.9996C150.75 34.4234 152.66 33.6354 154.897 33.6354C157.128 33.6354 159.035 34.4234 160.618 35.9996C162.206 37.5704 163 39.4633 163 41.6783H158.948C158.948 40.5734 158.55 39.6283 157.753 38.8429C156.962 38.0522 156.01 37.6568 154.897 37.6568C153.778 37.6568 152.823 38.0522 152.032 38.8429C151.241 39.6283 150.845 40.5734 150.845 41.6783H146.794ZM154.897 33.6354C152.66 33.6354 150.75 32.85 149.168 31.2791C147.585 29.7082 146.794 27.8127 146.794 25.5925H150.845C150.845 26.7026 151.241 27.6503 152.032 28.4358C152.823 29.2212 153.778 29.6139 154.897 29.6139C156.01 29.6139 156.962 29.2212 157.753 28.4358C158.55 27.6503 158.948 26.7026 158.948 25.5925H163C163 27.8127 162.206 29.7082 160.618 31.2791C159.035 32.85 157.128 33.6354 154.897 33.6354Z" fill="black"/>
</svg>
